%TF.GenerationSoftware,tscircuit,circuit-json-to-gerber,0.0.106*%
%TF.CreationDate,2026-09-26T16:44:15.276Z*%
%TF.SameCoordinates,Original*%
%TF.FileFunction,Copper,L1,Top*%
%TF.FilePolarity,Positive*%
%FSLAX46Y46*%
%MOMM*%
G04 Gerber Fmt 4.6, Leading zero omitted, Abs format (unit mm)*
G04 Created by tscircuit (builder) date 2026-09-26T16:44:15.276Z*
G01*
%LPD*%
G75*
G04 APERTURE MACROS START*
%AMHORZPILL*
0 Horizontal pill (stadium) shape macro*
0 Parameters:*
0 $1 = Total width*
0 $2 = Total height*
0 $3 = Circle diameter (equal to height)*
0 $4 = Circle center offset
0 21 = Center Line(Exposure, Width, Height, Center X, Center Y, Rotation)*
0 1 = Circle(Exposure, Diameter, Center X, Center Y, Rotation)*
21,1,$1-$3,$2,0.0,0.0,0.0*
1,1,$3,0.0-$4,0.0*
1,1,$3,$4,0.0*%
%AMVERTPILL*
0 Vertical pill (stadium) shape macro*
0 Parameters:*
0 $1 = Total width*
0 $2 = Total height*
0 $3 = Circle diameter (equal to width)*
0 $4 = Circle center offset
0 21 = Center Line(Exposure, Width, Height, Center X, Center Y, Rotation)*
21,1,$1,$2-$3,0.0,0.0,0.0*
1,1,$3,0.0,0.0-$4*
1,1,$3,0.0,$4*%
%AMROUNDRECT*
0 Rectangle with rounded corners*
0 $1 Corner radius*
0 $2 $3 $4 $5 $6 $7 $8 $9 X,Y Position of each corner*
0 Polygon box body*
4,1,4,$2,$3,$4,$5,$6,$7,$8,$9,$2,$3,0*
0 Circles for rounded corners*
1,1,$1+$1,$2,$3*
1,1,$1+$1,$4,$5*
1,1,$1+$1,$6,$7*
1,1,$1+$1,$8,$9*
0 Rectangles between the rounded corners*
20,1,$1+$1,$2,$3,$4,$5,0*
20,1,$1+$1,$4,$5,$6,$7,0*
20,1,$1+$1,$6,$7,$8,$9,0*
20,1,$1+$1,$8,$9,$2,$3,0*%
G04 APERTURE MACROS END*
G04 aperture START LIST*
%ADD10C,0.150000*%
%ADD11R,1.500000X1.500000*%
%ADD12C,0.045000*%
%ADD13C,1.500000*%
%ADD14C,0.063000*%
%ADD15R,1.000000X0.600000*%
%ADD16R,0.700000X0.420000*%
%ADD17C,0.100000*%
%ADD18C,0.055837*%
%ADD19R,0.800000X0.950000*%
%ADD20R,0.560000X0.665000*%
%ADD21C,0.036000*%
%ADD22C,0.120000*%
%ADD23C,0.300000*%
%TD*%
G04 aperture END LIST*
D11*
X-11000000Y-03810000D03*
D13*
X-11000000Y-01270000D03*
D13*
X-11000000Y001270000D03*
D13*
X-11000000Y003810000D03*
D15*
X-00150000Y001905000D03*
D15*
X-00150000Y000635000D03*
D15*
X-00150000Y-00635000D03*
D15*
X-00150000Y-01905000D03*
D15*
X004150000Y-01905000D03*
D15*
X004150000Y-00635000D03*
D15*
X004150000Y000635000D03*
D15*
X004150000Y001905000D03*
D19*
X003675000Y004000000D03*
D19*
X005325000Y004000000D03*
D19*
X-04825000Y006000000D03*
D19*
X-03175000Y006000000D03*
D19*
X-04825000Y-06000000D03*
D19*
X-03175000Y-06000000D03*
D10*
X-00150000Y000635000D02*
X-01999000Y-01214000D01*
D10*
X-01999000Y-01214000D02*
X-04158000Y-01214000D01*
D10*
X-04514000Y-04393000D02*
X-04581888Y-04460888D01*
D10*
X-04581888Y-04460888D02*
X-04581888Y-04600782D01*
D10*
X-04581888Y-04600782D02*
X-04825000Y-04843894D01*
D10*
X-04825000Y-04843894D02*
X-04825000Y-06000000D01*
D10*
X-11000000Y003810000D02*
X-07825000Y000635000D01*
D10*
X-07825000Y000635000D02*
X-00150000Y000635000D01*
D10*
X-00150000Y001905000D02*
X-00730000Y001905000D01*
D10*
X-00730000Y001905000D02*
X-04825000Y006000000D01*
D10*
X-07745000Y004132000D02*
X-06693000Y004132000D01*
D10*
X-06693000Y004132000D02*
X-04825000Y006000000D01*
D10*
X004150000Y000635000D02*
X004150000Y-00635000D01*
D10*
X004150000Y-00635000D02*
X004150000Y-01905000D01*
D10*
X004150000Y000635000D02*
X005325000Y001810000D01*
D10*
X005325000Y001810000D02*
X005325000Y004000000D01*
D10*
X-00150000Y-01905000D02*
X004150000Y-01905000D01*
D10*
X-11000000Y-01270000D02*
X-10365000Y-01905000D01*
D10*
X-10365000Y-01905000D02*
X-00150000Y-01905000D01*
D10*
X004150000Y001905000D02*
X003675000Y002380000D01*
D10*
X003675000Y002380000D02*
X003675000Y004000000D01*
D10*
X003675000Y004000000D02*
X001675000Y006000000D01*
D10*
X001675000Y006000000D02*
X-03175000Y006000000D01*
D10*
X-11000000Y-03810000D02*
X-04466676Y-03810000D01*
D10*
X-04466676Y-03810000D02*
X-04141373Y-04135303D01*
D10*
X-04141373Y-04135303D02*
X-04141373Y-05033627D01*
D10*
X-04141373Y-05033627D02*
X-03175000Y-06000000D01*
D10*
X004150000Y001905000D02*
X002961000Y000716000D01*
D10*
X002961000Y000716000D02*
X001398000Y000716000D01*
D10*
X-01134000Y-04982000D02*
X-01271728Y-05119728D01*
D10*
X-01271728Y-05119728D02*
X-01271728Y-05125524D01*
D10*
X-01271728Y-05125524D02*
X-02146204Y-06000000D01*
D10*
X-02146204Y-06000000D02*
X-03175000Y-06000000D01*
D23*
X-04158000Y-01214000D03*
D23*
X-04514000Y-04393000D03*
D23*
X-07745000Y004132000D03*
D23*
X001398000Y000716000D03*
D23*
X-01134000Y-04982000D03*
M02*